# xmcd
#
# Track frame offsets:
#	150
#	20832
#	38402
#	57047
#	76722
#	95805
#	116540
#	143695
#	164087
#	185465
#	202827
#	223052
#	244865
#	263285
#	291832
#	305937
#
# Disc length: 4376 seconds
#
# Revision: 1
# Processed by: cddbd v1.5PL3 Copyright (c) Steve Scherf et al.
# Submitted via: CDex 1.50Beta5
#
DISCID=e0111610
DTITLE=吉幾三 - 特撰集
DYEAR=1995
DGENRE=Country
TTITLE0=情炎
TTITLE1=縁し唄
TTITLE2=津軽平野
TTITLE3=女のかぞえ唄
TTITLE4=門出
TTITLE5=男の船唄
TTITLE6=娘に…
TTITLE7=雪國
TTITLE8=あんた
TTITLE9=小泊港
TTITLE10=東日流
TTITLE11=酔歌
TTITLE12=酒よ
TTITLE13=海猫
TTITLE14=故郷
TTITLE15=海峡
EXTD=
EXTT0=
EXTT1=
EXTT2=
EXTT3=
EXTT4=
EXTT5=
EXTT6=
EXTT7=
EXTT8=
EXTT9=
EXTT10=
EXTT11=
EXTT12=
EXTT13=
EXTT14=
EXTT15=
PLAYORDER=
